<svg xmlns="http://www.w3.org/2000/svg" viewBox="0 0 1061 283" width="1061" height="283"><g transform="translate(70 209.8)"><path d="M99.60 0L15 0L15-137.40L99-137.40Q109.60-137.40 118.20-133.20Q126.80-129 131.90-121.40Q137-113.80 137-103.60L137-103.60Q137-94.60 133.90-88.20Q130.80-81.80 125.70-77.80Q120.60-73.80 114.20-71.80L114.20-71.80L114.20-71Q121.60-69.40 127.60-65.30Q133.60-61.20 137.10-54.20Q140.60-47.20 140.60-37.20L140.60-37.20Q140.60-25.40 135-17.10Q129.40-8.80 120.20-4.40Q111 0 99.60 0L99.60 0ZM50.80-57.40L50.80-27.60L89.80-27.60Q96.20-27.60 100.10-31.40Q104-35.20 104-43L104-43Q104-47.20 102.30-50.50Q100.60-53.80 97.30-55.60Q94-57.40 89.20-57.40L89.20-57.40L50.80-57.40ZM50.80-110.80L50.80-82.80L86.60-82.80Q91-82.80 94.10-84.60Q97.20-86.40 98.90-89.60Q100.60-92.80 100.60-97.20L100.60-97.20Q100.60-103.60 96.80-107.20Q93-110.80 87.20-110.80L87.20-110.80L50.80-110.80ZM279.20 0L164.40 0L164.40-137.40L277.80-137.40L277.80-109.40L200.20-109.40L200.20-83.60L268-83.60L268-56.20L200.20-56.20L200.20-28L279.20-28L279.20 0ZM336.40 0L303.80 0L303.80-137.40L356-137.40L372.60-76.20Q373.60-73 375-67.50Q376.40-62 377.80-56Q379.20-50 380.20-45.20L380.20-45.20L381.80-45.20Q382.60-49 383.80-54.30Q385-59.60 386.40-65.50Q387.80-71.40 389-76.40L389-76.40L405.80-137.40L456.60-137.40L456.60 0L421.80 0L421.80-58.60Q421.80-67.20 421.90-76Q422-84.80 422.20-92Q422.40-99.20 422.40-102.40L422.40-102.40L420.80-102.40Q420.20-99.40 418.90-93.70Q417.60-88 416.10-81.90Q414.60-75.80 413.40-71.40L413.40-71.40L393.40 0L364.60 0L344.40-71.40Q343.40-75.40 342-81Q340.60-86.60 339.30-92.40Q338-98.20 337-102.20L337-102.20L335.40-102.20Q335.60-97 335.80-89.50Q336-82 336.20-73.90Q336.40-65.80 336.40-58.60L336.40-58.60L336.40 0ZM601.80 0L487 0L487-137.40L600.40-137.40L600.40-109.40L522.80-109.40L522.80-83.60L590.60-83.60L590.60-56.20L522.80-56.20L522.80-28L601.80-28L601.80 0Z" fill="#F2EDE3"></path><path d="M653.40 0L612.80 0L662.20-72.40L617.60-137.40L661.00-137.40L686.20-97.40L687.20-97.40L712.40-137.40L753.00-137.40L708.20-72.40L757.60 0L714.00 0L684.20-47.40L683.20-47.40L653.40 0Z" fill="#FFC21A"></path><path d="M839.60 2.40L839.60 2.40Q817.00 2.40 800.90-5.50Q784.80-13.40 776.20-29.20Q767.60-45 767.60-68.80L767.60-68.80Q767.60-92.60 776.20-108.30Q784.80-124 800.90-131.90Q817.00-139.80 839.60-139.80L839.60-139.80Q862.20-139.80 878.30-131.90Q894.40-124 903.00-108.30Q911.60-92.60 911.60-68.80L911.60-68.80Q911.60-45 903.00-29.20Q894.40-13.40 878.30-5.50Q862.20 2.40 839.60 2.40ZM839.60-25.60L839.60-25.60Q848.20-25.60 854.80-28.20Q861.40-30.80 865.90-35.80Q870.40-40.80 872.60-48Q874.80-55.20 874.80-64.20L874.80-64.20L874.80-73Q874.80-82.20 872.60-89.40Q870.40-96.60 865.90-101.60Q861.40-106.60 854.80-109.20Q848.20-111.80 839.60-111.80L839.60-111.80Q830.80-111.80 824.20-109.20Q817.60-106.60 813.20-101.60Q808.80-96.60 806.60-89.40Q804.40-82.20 804.40-73L804.40-73L804.40-64.20Q804.40-55.20 806.60-48Q808.80-40.80 813.20-35.80Q817.60-30.80 824.20-28.20Q830.80-25.60 839.60-25.60Z" fill="#F2EDE3"></path></g></svg>